<svg width="67" height="56" viewBox="0 0 67 56" fill="none" xmlns="http://www.w3.org/2000/svg">
<path d="M64.5917 8.14792H57.9292C56.4856 8.14792 55.0421 7.48167 53.9317 6.48229L48.6017 1.92958C47.4912 1.04125 46.0477 0.375 44.6042 0.375H31.6123C29.9467 0.375 28.3921 1.04125 27.1706 2.26271L20.286 7.92583C19.7308 8.37 19.7308 9.25833 20.175 9.81354L22.2848 11.8123C23.7283 12.9227 25.616 13.1448 27.0596 12.1454L33.1669 8.48104C33.9442 7.92583 35.0546 8.14792 35.7208 8.81417L54.931 27.4692C55.3752 27.9133 55.7083 28.5796 55.7083 29.2458V34.2427C55.7083 35.5752 56.7077 37.0187 57.9292 37.0187H64.5917C65.8131 37.0187 66.8125 36.0194 66.8125 34.6869V10.3688C66.8125 9.03625 65.8131 8.14792 64.5917 8.14792ZM45.7146 28.1354L36.5075 19.1841C34.8655 17.5877 32.3546 17.2965 30.3908 18.4748C28.7252 19.4742 26.8375 20.0294 24.9498 20.0294C22.6179 20.0294 20.175 19.141 18.2873 17.5865L13.9567 14.0331C12.9573 13.2558 12.4021 12.3675 12.291 11.146C12.069 9.92458 11.1806 9.25833 10.0702 9.25833H2.40833C1.18687 9.25833 0.1875 9.92458 0.1875 11.2571V31.4667C0.1875 32.7992 1.18687 33.6875 2.40833 33.6875H6.85C7.18313 33.6875 7.62729 32.466 8.07146 31.9108C9.73708 29.69 12.18 28.4685 14.845 28.1354C17.51 27.9133 20.064 28.8017 22.1737 30.6894L36.054 43.3481C37.2754 44.4585 38.1637 45.68 38.719 47.2346C39.0521 48.0119 39.9404 48.234 40.4956 47.6788L45.7146 42.4598C48.3796 39.7948 50.3783 33.5765 47.9354 30.6894L45.7146 28.1354ZM17.8431 36.3525C16.3996 35.02 14.2898 35.2421 13.1794 36.7967C11.9579 38.3512 12.18 40.5721 13.6235 41.9046L27.5037 54.4523C28.17 55.1185 29.0583 55.3406 29.9467 55.2296C30.835 55.1185 31.6123 54.6744 32.1675 53.8971C33.389 52.3425 33.1669 50.1217 31.7233 48.7892L17.8431 36.3525Z" fill="url(#paint0_linear_1509_3631)"/>
<defs>
<linearGradient id="paint0_linear_1509_3631" x1="-3.77827" y1="27.8159" x2="72.5026" y2="33.7873" gradientUnits="userSpaceOnUse">
<stop stop-color="#EE3674"/>
<stop offset="1" stop-color="#5951F6"/>
</linearGradient>
</defs>
</svg>
