<svg width="114.0" height="70.4" viewBox="0 0 570 352" fill="none" xmlns="http://www.w3.org/2000/svg">
<path
        fill-rule="evenodd"
        clip-rule="evenodd"
        d="M0 0H570V352H0V0ZM194.93 233L202.383 247.398H187.477L169.531 281.766H135.977V233H104.75L84.4766 253.203L64.2031 233H45.3281L65.6016 253.203H84.4766L43 294.766H61.875L84.2422 272.477L106.617 294.766H125.492L103.117 272.477H84.2422L123.156 233.461V269.227L135.977 282L136.211 282.227L149.023 295H177.688L202.383 247.398L227.086 294.766H242L209.844 233H194.93ZM487.383 71.3984L479.93 57H494.844L527 118.766H512.086L487.383 71.3984ZM369.477 77.2031L389.75 57H420.977V105.766H454.531L472.477 71.3984H487.383L462.688 119H434.023L421.211 106.227L420.977 106L408.156 93.2266V57.4609L369.242 96.4766L346.875 118.766H328L369.477 77.2031ZM369.242 96.4766H388.117L410.492 118.766H391.617L369.242 96.4766ZM349.203 57L369.477 77.2031H350.602L330.328 57H349.203Z"
        fill="black"
    />
</svg>
