<svg viewBox="0 0 668 305" fill="none" xmlns="http://www.w3.org/2000/svg">
<rect width="668" height="305" fill="black" />
<path
        d="M238.981 174L246.441 188.452L271.149 236.005H286.068L253.9 174H238.981ZM148.772 174L128.492 194.28L108.212 174H89.331L109.611 194.28H128.492L87 236.005H105.881L167.186 174.466V210.364L180.007 223.184L180.24 223.417L193.061 236.238H221.732L246.441 188.452H231.522L213.573 222.951H180.007V174H148.772ZM128.259 213.627L150.636 236.005H169.517L147.14 213.627H128.259Z"
        fill="white"
    />
<path
        d="M537.981 81L545.441 95.4522L570.149 143.005H585.068L552.9 81H537.981ZM447.772 81L427.492 101.28L407.212 81H388.331L408.611 101.28H427.492L386 143.005H404.881L466.186 81.4662V117.364L479.007 130.184L479.24 130.417L492.061 143.238H520.732L545.441 95.4522H530.522L512.573 129.951H479.007V81H447.772ZM427.259 120.627L449.636 143.005H468.517L446.14 120.627H427.259Z"
        fill="white"
    />
</svg>
