<?xml version="1.0" encoding="utf-8" ?>
<svg viewBox="107.683 175.183 340.139 180.155" xmlns="http://www.w3.org/2000/svg">
  <path
        d="M 107.683 175.183 L 447.822 175.183 L 447.822 355.338 L 107.683 355.338 Z M 384.833 212.856 L 388.622 221.109 L 401.171 248.267 L 408.748 248.267 L 392.41 212.856 Z M 339.016 212.856 L 328.716 224.437 L 318.416 212.856 L 308.826 212.856 L 319.126 224.437 L 328.716 224.437 L 307.642 248.267 L 317.232 248.267 L 348.369 213.122 L 348.369 233.623 L 354.88 240.945 L 354.999 241.078 L 361.51 248.4 L 376.072 248.4 L 388.622 221.109 L 381.045 221.109 L 371.929 240.812 L 354.88 240.812 L 354.88 212.856 Z M 328.597 235.487 L 339.963 248.267 L 349.553 248.267 L 338.187 235.487 Z M 223.205 282.555 L 226.994 290.808 L 239.543 317.966 L 247.12 317.966 L 230.782 282.555 Z M 177.388 282.555 L 167.088 294.136 L 156.788 282.555 L 147.198 282.555 L 157.498 294.136 L 167.088 294.136 L 146.014 317.966 L 155.604 317.966 L 186.741 282.821 L 186.741 303.322 L 193.252 310.644 L 193.371 310.777 L 199.882 318.099 L 214.444 318.099 L 226.994 290.808 L 219.417 290.808 L 210.301 310.511 L 193.252 310.511 L 193.252 282.555 Z M 166.969 305.186 L 178.335 317.966 L 187.925 317.966 L 176.559 305.186 Z"
        style="stroke: rgb(0, 0, 0); isolation: isolate; stroke-opacity: 0; stroke-width: 0px;"
    />
</svg>
