<?xml version="1.0" encoding="utf-8"?>
<svg viewBox="232.472 175.183 215.35 102.356" xmlns="http://www.w3.org/2000/svg">
  <path d="M 232.472 175.183 L 447.822 175.183 L 447.822 277.539 L 232.472 277.539 Z M 370.171 209.216 L 373.96 217.469 L 386.509 244.627 L 394.086 244.627 L 377.748 209.216 Z M 324.354 209.216 L 314.054 220.797 L 303.754 209.216 L 294.164 209.216 L 304.464 220.797 L 314.054 220.797 L 292.98 244.627 L 302.57 244.627 L 333.707 209.482 L 333.707 229.983 L 340.218 237.305 L 340.337 237.438 L 346.848 244.76 L 361.41 244.76 L 373.96 217.469 L 366.383 217.469 L 357.267 237.172 L 340.218 237.172 L 340.218 209.216 Z M 313.935 231.847 L 325.301 244.627 L 334.891 244.627 L 323.525 231.847 Z" style="stroke: rgb(0, 0, 0); isolation: isolate; stroke-opacity: 0; stroke-width: 0px;"/>
</svg>