<?xml version="1.0" encoding="utf-8"?>
<svg viewBox="273.426 203.031 132.912 58.837" xmlns="http://www.w3.org/2000/svg">
  <path d="M 273.426 203.031 L 406.338 203.031 L 406.338 261.868 L 273.426 261.868 L 273.426 203.031 Z M 364.903 214.981 L 368.692 223.234 L 381.241 250.392 L 388.818 250.392 L 372.48 214.981 L 364.903 214.981 Z M 319.086 214.981 L 308.786 226.562 L 298.486 214.981 L 288.896 214.981 L 299.196 226.562 L 308.786 226.562 L 287.712 250.392 L 297.302 250.392 L 328.439 215.247 L 328.439 235.748 L 334.95 243.07 L 335.069 243.203 L 341.58 250.525 L 356.142 250.525 L 368.692 223.234 L 361.115 223.234 L 351.999 242.937 L 334.95 242.937 L 334.95 214.981 L 319.086 214.981 Z M 308.667 237.612 L 320.033 250.392 L 329.623 250.392 L 318.257 237.612 L 308.667 237.612 Z" style="stroke: rgb(0, 0, 0); isolation: isolate; stroke-opacity: 0; stroke-width: 0px;"/>
</svg>