<?xml version="1.0" encoding="utf-8" ?>
<svg viewBox="275.897 227.739 88.097 30.167" xmlns="http://www.w3.org/2000/svg">
  <path
        d="M 275.897 227.739 L 363.994 227.739 L 363.994 257.906 L 275.897 257.906 Z M 341.977 229.325 L 345.177 235.525 L 355.777 255.925 L 362.177 255.925 L 348.377 229.325 Z M 303.277 229.325 L 294.577 238.025 L 285.877 229.325 L 277.777 229.325 L 286.477 238.025 L 294.577 238.025 L 276.777 255.925 L 284.877 255.925 L 311.177 229.525 L 311.177 244.925 L 322.277 256.025 L 334.577 256.025 L 345.177 235.525 L 338.777 235.525 L 331.077 250.325 L 316.677 250.325 L 316.677 229.325 Z M 294.477 246.325 L 304.077 255.925 L 312.177 255.925 L 302.577 246.325 Z"
    />
</svg>
