<svg width="570" height="352" viewBox="0 0 570 352" fill="none" xmlns="http://www.w3.org/2000/svg">
<style type="text/css">
	.path{fill:rgba(255,255,255,0.99);}
</style>
<path
        fill-rule="evenodd"
        clip-rule="evenodd"
        d="M0 0H570V352H0V0ZM194.93 233L202.383 247.398H187.477L169.531 281.766H135.977V233H104.75L84.4766 253.203L64.2031 233H45.3281L65.6016 253.203H84.4766L43 294.766H61.875L84.2422 272.477L106.617 294.766H125.492L103.117 272.477H84.2422L123.156 233.461V269.227L135.977 282L136.211 282.227L149.023 295H177.688L202.383 247.398L227.086 294.766H242L209.844 233H194.93ZM487.383 71.3984L479.93 57H494.844L527 118.766H512.086L487.383 71.3984ZM369.477 77.2031L389.75 57H420.977V105.766H454.531L472.477 71.3984H487.383L462.688 119H434.023L421.211 106.227L420.977 106L408.156 93.2266V57.4609L369.242 96.4766L346.875 118.766H328L369.477 77.2031ZM369.242 96.4766H388.117L410.492 118.766H391.617L369.242 96.4766ZM349.203 57L369.477 77.2031H350.602L330.328 57H349.203Z"
        fill="rgba(255,255,255,1)"
    />
<path
        d="M194.93 233L202.386 247.397L227.087 294.768H242L209.843 233H194.93ZM104.751 233L84.4777 253.202L64.2049 233H45.3302L65.603 253.202H84.4777L43 294.768H61.8747L123.159 233.464V269.225L135.975 281.996L136.208 282.228L149.025 295H177.686L202.386 247.397H187.473L169.53 281.764H135.975V233H104.751ZM84.2447 272.476L106.615 294.768H125.489L103.119 272.476H84.2447Z"
        class="path"
    />
<path
        d="M479.93 57L487.386 71.397L512.087 118.768H527L494.843 57H479.93ZM389.751 57L369.478 77.2022L349.205 57H330.33L350.603 77.2022H369.478L328 118.768H346.875L408.159 57.4644V93.2247L420.975 105.996L421.208 106.228L434.025 119H462.686L487.386 71.397H472.473L454.53 105.764H420.975V57H389.751ZM369.245 96.4757L391.615 118.768H410.489L388.119 96.4757H369.245Z"
        class="path"
    />
</svg>
